Coordinates
version=1
nRows=11
nColumns=40
inDegrees=yes

Units are S.I. units (second, meters, Newtons, ...)
If the header above contains a line with 'inDegrees', this indicates whether rotational values are in degrees (yes) or radians (no).

endheader
time	pelvis_tilt	pelvis_list	pelvis_rotation	pelvis_tx	pelvis_ty	pelvis_tz	hip_flexion_r	hip_adduction_r	hip_rotation_r	knee_angle_r	knee_angle_r_beta	ankle_angle_r	subtalar_angle_r	mtp_angle_r	hip_flexion_l	hip_adduction_l	hip_rotation_l	knee_angle_l	knee_angle_l_beta	ankle_angle_l	subtalar_angle_l	mtp_angle_l	lumbar_extension	lumbar_bending	lumbar_rotation	arm_flex_r	arm_add_r	arm_rot_r	elbow_flex_r	pro_sup_r	wrist_flex_r	wrist_dev_r	arm_flex_l	arm_add_l	arm_rot_l	elbow_flex_l	pro_sup_l	wrist_flex_l	wrist_dev_l
      3.55000000	    -28.89344927	     -3.03477145	     -0.61531762	     -0.33862737	      0.71486288	     -0.97980553	     30.67550667	     -5.17752099	     11.64892284	     89.89201112	      1.56891157	    -20.43278248	      0.00000000	      0.00000000	     83.18113085	     -6.15024989	     -4.33566337	     90.29287331	      1.57590793	     21.31994290	      0.00000000	      0.00000000	    -16.77471930	    -12.34472899	      7.17603707	     80.10237884	     -4.54366736	     20.26491996	     76.04507384	     80.04605977	      0.00000000	      0.00000000	     88.62438657	    -14.71815933	     38.73853071	     72.67935834	     70.64407881	      0.00000000	      0.00000000
      3.55500000	    -28.75403015	     -2.90894976	     -0.55528118	     -0.33825709	      0.71503499	     -0.98005100	     30.45242432	     -5.39661995	     11.63874905	     89.84345829	      1.56806416	    -20.32398061	      0.00000000	      0.00000000	     82.98958172	     -6.07037479	     -4.48683501	     90.28603246	      1.57578853	     21.21885159	      0.00000000	      0.00000000	    -16.97167218	    -12.43183000	      7.05559673	     80.18580966	     -4.55936366	     20.69868413	     76.10437007	     74.34744213	      0.00000000	      0.00000000	     88.64566659	    -14.81932319	     39.09842884	     72.90570519	     67.09768340	      0.00000000	      0.00000000
      3.56000000	    -28.77257628	     -2.92496505	     -0.53391460	     -0.33811436	      0.71494700	     -0.98002882	     30.42450996	     -5.41361545	     11.57354839	     89.83658255	      1.56794415	    -20.17650913	      0.00000000	      0.00000000	     83.01311062	     -6.07523393	     -4.47502122	     90.32626340	      1.57649070	     21.18768850	      0.00000000	      0.00000000	    -16.97953875	    -12.45074646	      6.97108198	     80.18788174	     -4.54847109	     20.78236445	     76.15827359	     71.95073927	      0.00000000	      0.00000000	     88.60761308	    -14.82388955	     39.24183952	     73.01374730	     65.34810619	      0.00000000	      0.00000000
      3.56500000	    -28.84626691	     -2.98446782	     -0.48627276	     -0.33807400	      0.71469480	     -0.97999071	     30.46223776	     -5.36792192	     11.50705278	     89.85206284	      1.56821434	    -20.24421817	      0.00000000	      0.00000000	     83.12548314	     -6.05684815	     -4.40786746	     90.35087730	      1.57692029	     21.19539437	      0.00000000	      0.00000000	    -16.91649415	    -12.38775087	      6.92920303	     80.22101694	     -4.52971823	     20.87279317	     76.22018531	     69.92718523	      0.00000000	      0.00000000	     88.66205644	    -14.84572765	     39.33051332	     73.10627624	     63.85191154	      0.00000000	      0.00000000
      3.57000000	    -28.91767362	     -3.02022213	     -0.48115188	     -0.33802694	      0.71441917	     -0.97996335	     30.53205155	     -5.34780102	     11.44836489	     89.88304243	      1.56875503	    -20.17796736	      0.00000000	      0.00000000	     83.25198035	     -6.06727733	     -4.34881845	     90.42941802	      1.57829109	     21.20039379	      0.00000000	      0.00000000	    -16.85339854	    -12.34185213	      6.92181299	     80.21376112	     -4.57053466	     20.91262532	     76.29130593	     68.57983736	      0.00000000	      0.00000000	     88.63003222	    -14.89555531	     39.38292462	     73.17348193	     62.86399024	      0.00000000	      0.00000000
      3.57500000	    -28.95155273	     -3.04082377	     -0.46440363	     -0.33781756	      0.71434787	     -0.97983452	     30.50709950	     -5.35343553	     11.41723919	     89.79870097	      1.56728300	    -20.44964446	      0.00000000	      0.00000000	     83.24572386	     -6.09932114	     -4.38315746	     90.40262540	      1.57782347	     21.33229127	      0.00000000	      0.00000000	    -16.81895261	    -12.35305357	      6.92360583	     80.18190061	     -4.48722721	     20.24867987	     75.95540121	     80.19497777	      0.00000000	      0.00000000	     88.68718121	    -14.75183876	     38.75271329	     72.66308028	     70.88982704	      0.00000000	      0.00000000
      3.58000000	    -29.00674738	     -3.09512082	     -0.47532897	     -0.33769823	      0.71408359	     -0.97972539	     30.53235975	     -5.31869812	     11.38862211	     89.79375271	      1.56719663	    -20.49148309	      0.00000000	      0.00000000	     83.33537013	     -6.15712495	     -4.33845406	     90.46326422	      1.57888181	     21.31423234	      0.00000000	      0.00000000	    -16.76129761	    -12.30474247	      6.91447892	     80.16115029	     -4.50549583	     20.29353061	     75.99112969	     80.17809182	      0.00000000	      0.00000000	     88.69442374	    -14.78924129	     38.77305670	     72.66339125	     70.91242532	      0.00000000	      0.00000000
      3.58500000	    -28.96802312	     -3.00442619	     -0.43469370	     -0.33746693	      0.71409624	     -0.97983286	     30.43651241	     -5.46268116	     11.40007439	     89.76221477	      1.56664619	    -20.55578794	      0.00000000	      0.00000000	     83.25488267	     -6.10215057	     -4.45376791	     90.47043624	      1.57900699	     21.32711289	      0.00000000	      0.00000000	    -16.82356111	    -12.40544902	      6.88620275	     80.15121428	     -4.56411513	     20.25079942	     76.01376157	     80.14045684	      0.00000000	      0.00000000	     88.72505697	    -14.69267332	     38.79472517	     72.57632657	     70.75387189	      0.00000000	      0.00000000
      3.59000000	    -28.93554806	     -2.89945481	     -0.36411139	     -0.33723393	      0.71415219	     -0.97997153	     30.36667371	     -5.65819323	     11.34524907	     89.75579022	      1.56653406	    -20.52826001	      0.00000000	      0.00000000	     83.15642793	     -6.02225343	     -4.59563634	     90.43177456	      1.57833221	     21.40393697	      0.00000000	      0.00000000	    -16.90347514	    -12.49329669	      6.70096840	     80.16642709	     -4.47191414	     20.26103099	     75.99087480	     79.97482504	      0.00000000	      0.00000000	     88.72359307	    -14.82979587	     38.75373926	     72.69448812	     71.01967331	      0.00000000	      0.00000000
      3.59500000	    -28.92259236	     -2.91086484	     -0.34949111	     -0.33703457	      0.71407714	     -0.97994479	     30.29555562	     -5.67699156	     11.31653136	     89.71527462	      1.56582693	    -20.46114946	      0.00000000	      0.00000000	     83.14261478	     -6.04686533	     -4.61166245	     90.45007872	      1.57865168	     21.41245424	      0.00000000	      0.00000000	    -16.92801419	    -12.48668784	      6.69885868	     80.19239329	     -4.50200608	     20.29004740	     75.98372063	     79.97693171	      0.00000000	      0.00000000	     88.72268286	    -14.78933757	     38.77787448	     72.67177332	     70.95449829	      0.00000000	      0.00000000
      3.60000000	    -28.94358166	     -2.91432476	     -0.36565853	     -0.33688539	      0.71397761	     -0.97981237	     30.26425706	     -5.65780747	     11.38128978	     89.69717102	      1.56551096	    -20.36957809	      0.00000000	      0.00000000	     83.19678279	     -6.12688784	     -4.65204087	     90.53693184	      1.58016756	     21.17788111	      0.00000000	      0.00000000	    -16.91322278	    -12.50006027	      6.72732774	     80.25843812	     -4.59029108	     20.61661191	     76.04433181	     75.84244037	      0.00000000	      0.00000000	     88.75272696	    -14.80667555	     39.14034924	     72.80505174	     67.62959567	      0.00000000	      0.00000000
